STARTFONT 2.1
FONT -B&H-Lucida Bright-Medium-I-Normal--10-100-72-72-P-57-ISO8859-1
SIZE 10 72 72
FONTBOUNDINGBOX 17 12 -6 -2

STARTPROPERTIES 22
FONTNAME_REGISTRY "-"
FOUNDRY "B&H"
FAMILY_NAME "Lucida Bright"
WEIGHT_NAME "Medium"
SLANT "I"
SETWIDTH_NAME "Normal"
ADD_STYLE_NAME ""
PIXEL_SIZE 10
POINT_SIZE 100
RESOLUTION_X 72
RESOLUTION_Y 72
SPACING "P"
CHARSET_REGISTRY "ISO8859"
CHARSET_ENCODING "1"
FULL_NAME "LucidaBright-Italic"
AVERAGE_WIDTH 57
WEIGHT 10
X_HEIGHT 5
QUAD_WIDTH 5
DEFAULT_CHAR 32
FONT_DESCENT 2
FONT_ASCENT 10
ENDPROPERTIES

CHARS 190

STARTCHAR space
ENCODING 32
SWIDTH 333 0
DWIDTH 3 0
BBX 1 1 0 0
BITMAP
00
ENDCHAR

STARTCHAR exclam
ENCODING 33
SWIDTH 265 0
DWIDTH 3 0
BBX 3 8 1 0
BITMAP
60
40
40
40
40
40
00
80
ENDCHAR

STARTCHAR quotedbl
ENCODING 34
SWIDTH 377 0
DWIDTH 4 0
BBX 2 2 2 6
BITMAP
C0
C0
ENDCHAR

STARTCHAR numbersign
ENCODING 35
SWIDTH 608 0
DWIDTH 6 0
BBX 6 8 1 0
BITMAP
14
14
28
FC
48
FC
50
A0
ENDCHAR

STARTCHAR dollar
ENCODING 36
SWIDTH 608 0
DWIDTH 6 0
BBX 5 9 1 -1
BITMAP
38
68
60
20
30
30
B0
E0
40
ENDCHAR

STARTCHAR percent
ENCODING 37
SWIDTH 759 0
DWIDTH 8 0
BBX 8 8 1 0
BITMAP
62
94
98
96
79
29
49
86
ENDCHAR

STARTCHAR ampersand
ENCODING 38
SWIDTH 727 0
DWIDTH 7 0
BBX 7 8 1 0
BITMAP
18
28
28
70
D6
94
88
7C
ENDCHAR

STARTCHAR quoteright
ENCODING 39
SWIDTH 265 0
DWIDTH 3 0
BBX 2 4 2 4
BITMAP
C0
C0
80
80
ENDCHAR

STARTCHAR parenleft
ENCODING 40
SWIDTH 310 0
DWIDTH 3 0
BBX 3 10 1 -2
BITMAP
20
40
40
80
80
80
80
80
80
C0
ENDCHAR

STARTCHAR parenright
ENCODING 41
SWIDTH 310 0
DWIDTH 3 0
BBX 3 10 0 -2
BITMAP
20
20
20
20
20
20
20
20
40
80
ENDCHAR

STARTCHAR asterisk
ENCODING 42
SWIDTH 458 0
DWIDTH 5 0
BBX 4 5 1 3
BITMAP
40
40
F0
60
A0
ENDCHAR

STARTCHAR plus
ENCODING 43
SWIDTH 608 0
DWIDTH 6 0
BBX 6 7 1 0
BITMAP
10
10
10
FC
20
20
20
ENDCHAR

STARTCHAR comma
ENCODING 44
SWIDTH 265 0
DWIDTH 3 0
BBX 2 3 0 -2
BITMAP
C0
40
80
ENDCHAR

STARTCHAR minus
ENCODING 45
SWIDTH 608 0
DWIDTH 6 0
BBX 6 1 1 3
BITMAP
FC
ENDCHAR

STARTCHAR period
ENCODING 46
SWIDTH 265 0
DWIDTH 3 0
BBX 1 1 1 0
BITMAP
80
ENDCHAR

STARTCHAR slash
ENCODING 47
SWIDTH 458 0
DWIDTH 5 0
BBX 7 10 0 -2
BITMAP
06
04
08
18
10
20
20
40
40
80
ENDCHAR

STARTCHAR zero
ENCODING 48
SWIDTH 608 0
DWIDTH 6 0
BBX 5 8 1 0
BITMAP
38
48
48
88
88
88
90
60
ENDCHAR

STARTCHAR one
ENCODING 49
SWIDTH 608 0
DWIDTH 6 0
BBX 4 8 1 0
BITMAP
70
10
20
20
20
20
20
F0
ENDCHAR

STARTCHAR two
ENCODING 50
SWIDTH 608 0
DWIDTH 6 0
BBX 6 8 1 0
BITMAP
38
4C
0C
08
30
60
40
F8
ENDCHAR

STARTCHAR three
ENCODING 51
SWIDTH 608 0
DWIDTH 6 0
BBX 5 8 1 0
BITMAP
38
48
08
70
18
08
90
E0
ENDCHAR

STARTCHAR four
ENCODING 52
SWIDTH 608 0
DWIDTH 6 0
BBX 5 8 1 0
BITMAP
08
18
28
68
50
F8
10
38
ENDCHAR

STARTCHAR five
ENCODING 53
SWIDTH 608 0
DWIDTH 6 0
BBX 5 8 1 0
BITMAP
78
40
40
70
10
08
90
E0
ENDCHAR

STARTCHAR six
ENCODING 54
SWIDTH 608 0
DWIDTH 6 0
BBX 5 8 1 0
BITMAP
38
48
40
F0
88
88
90
60
ENDCHAR

STARTCHAR seven
ENCODING 55
SWIDTH 608 0
DWIDTH 6 0
BBX 6 8 2 0
BITMAP
7C
08
10
30
60
40
C0
80
ENDCHAR

STARTCHAR eight
ENCODING 56
SWIDTH 608 0
DWIDTH 6 0
BBX 5 8 1 0
BITMAP
38
48
48
70
88
88
98
70
ENDCHAR

STARTCHAR nine
ENCODING 57
SWIDTH 608 0
DWIDTH 6 0
BBX 5 8 1 0
BITMAP
30
48
88
88
88
70
10
E0
ENDCHAR

STARTCHAR colon
ENCODING 58
SWIDTH 265 0
DWIDTH 3 0
BBX 2 5 1 0
BITMAP
40
00
00
00
80
ENDCHAR

STARTCHAR semicolon
ENCODING 59
SWIDTH 265 0
DWIDTH 3 0
BBX 3 7 0 -2
BITMAP
60
00
00
00
C0
80
80
ENDCHAR

STARTCHAR less
ENCODING 60
SWIDTH 608 0
DWIDTH 6 0
BBX 7 5 2 0
BITMAP
06
18
E0
18
04
ENDCHAR

STARTCHAR equal
ENCODING 61
SWIDTH 608 0
DWIDTH 6 0
BBX 6 3 1 2
BITMAP
FC
00
FC
ENDCHAR

STARTCHAR greater
ENCODING 62
SWIDTH 608 0
DWIDTH 6 0
BBX 7 5 0 0
BITMAP
60
18
0E
38
C0
ENDCHAR

STARTCHAR question
ENCODING 63
SWIDTH 471 0
DWIDTH 5 0
BBX 4 8 1 0
BITMAP
F0
90
10
20
40
C0
00
80
ENDCHAR

STARTCHAR at
ENCODING 64
SWIDTH 861 0
DWIDTH 9 0
BBX 8 8 1 0
BITMAP
1C
62
81
9D
A9
BE
B6
78
ENDCHAR

STARTCHAR A
ENCODING 65
SWIDTH 747 0
DWIDTH 7 0
BBX 7 8 0 0
BITMAP
0C
0C
14
14
24
7C
42
C6
ENDCHAR

STARTCHAR B
ENCODING 66
SWIDTH 606 0
DWIDTH 6 0
BBX 6 8 0 0
BITMAP
7C
24
24
38
6C
44
48
F8
ENDCHAR

STARTCHAR C
ENCODING 67
SWIDTH 714 0
DWIDTH 7 0
BBX 7 8 1 0
BITMAP
1E
64
40
80
80
80
C0
78
ENDCHAR

STARTCHAR D
ENCODING 68
SWIDTH 770 0
DWIDTH 8 0
BBX 8 8 0 0
BITMAP
7E
23
21
21
63
42
46
F8
ENDCHAR

STARTCHAR E
ENCODING 69
SWIDTH 569 0
DWIDTH 6 0
BBX 6 8 0 0
BITMAP
7C
24
28
38
68
40
48
F8
ENDCHAR

STARTCHAR F
ENCODING 70
SWIDTH 551 0
DWIDTH 6 0
BBX 6 8 0 0
BITMAP
7C
24
28
38
68
40
40
E0
ENDCHAR

STARTCHAR G
ENCODING 71
SWIDTH 756 0
DWIDTH 8 0
BBX 7 8 1 0
BITMAP
1E
64
40
80
80
8E
C4
78
ENDCHAR

STARTCHAR H
ENCODING 72
SWIDTH 776 0
DWIDTH 8 0
BBX 9 8 0 0
BITMAP
7380
2100
2200
3E00
6200
4200
4200
EE00
ENDCHAR

STARTCHAR I
ENCODING 73
SWIDTH 325 0
DWIDTH 3 0
BBX 4 8 0 0
BITMAP
70
20
20
20
20
40
40
E0
ENDCHAR

STARTCHAR J
ENCODING 74
SWIDTH 422 0
DWIDTH 4 0
BBX 6 10 0 -2
BITMAP
1C
08
10
10
10
10
10
30
A0
C0
ENDCHAR

STARTCHAR K
ENCODING 75
SWIDTH 698 0
DWIDTH 7 0
BBX 8 8 0 0
BITMAP
77
26
24
38
70
48
4C
EE
ENDCHAR

STARTCHAR L
ENCODING 76
SWIDTH 572 0
DWIDTH 6 0
BBX 6 8 0 0
BITMAP
70
20
20
20
60
40
44
F8
ENDCHAR

STARTCHAR M
ENCODING 77
SWIDTH 865 0
DWIDTH 9 0
BBX 10 8 0 0
BITMAP
71C0
3180
3280
5500
5500
4900
4900
C380
ENDCHAR

STARTCHAR N
ENCODING 78
SWIDTH 762 0
DWIDTH 8 0
BBX 9 8 0 0
BITMAP
6380
3100
5200
4A00
4A00
4600
4600
C400
ENDCHAR

STARTCHAR O
ENCODING 79
SWIDTH 783 0
DWIDTH 8 0
BBX 7 8 1 0
BITMAP
1C
66
42
82
82
84
CC
70
ENDCHAR

STARTCHAR P
ENCODING 80
SWIDTH 579 0
DWIDTH 6 0
BBX 6 8 0 0
BITMAP
7C
24
24
24
78
40
40
E0
ENDCHAR

STARTCHAR Q
ENCODING 81
SWIDTH 788 0
DWIDTH 8 0
BBX 8 10 1 -2
BITMAP
1C
66
42
82
82
84
CC
78
08
07
ENDCHAR

STARTCHAR R
ENCODING 82
SWIDTH 686 0
DWIDTH 7 0
BBX 7 8 0 0
BITMAP
7C
24
24
24
38
48
48
E6
ENDCHAR

STARTCHAR S
ENCODING 83
SWIDTH 549 0
DWIDTH 5 0
BBX 6 8 1 0
BITMAP
3C
68
40
20
10
08
98
F0
ENDCHAR

STARTCHAR T
ENCODING 84
SWIDTH 663 0
DWIDTH 7 0
BBX 6 8 1 0
BITMAP
FC
94
20
20
20
20
20
F0
ENDCHAR

STARTCHAR U
ENCODING 85
SWIDTH 727 0
DWIDTH 7 0
BBX 7 8 1 0
BITMAP
E6
44
44
84
84
84
88
70
ENDCHAR

STARTCHAR V
ENCODING 86
SWIDTH 656 0
DWIDTH 7 0
BBX 7 8 1 0
BITMAP
E6
42
44
44
48
48
30
20
ENDCHAR

STARTCHAR W
ENCODING 87
SWIDTH 878 0
DWIDTH 9 0
BBX 9 8 1 0
BITMAP
E980
4880
5900
5900
6A00
6A00
4400
4400
ENDCHAR

STARTCHAR X
ENCODING 88
SWIDTH 624 0
DWIDTH 6 0
BBX 8 8 0 0
BITMAP
33
12
14
08
18
28
44
CE
ENDCHAR

STARTCHAR Y
ENCODING 89
SWIDTH 663 0
DWIDTH 7 0
BBX 7 8 1 0
BITMAP
E6
44
48
30
20
20
20
E0
ENDCHAR

STARTCHAR Z
ENCODING 90
SWIDTH 633 0
DWIDTH 6 0
BBX 6 8 1 0
BITMAP
7C
44
08
10
20
60
48
F8
ENDCHAR

STARTCHAR bracketleft
ENCODING 91
SWIDTH 310 0
DWIDTH 3 0
BBX 4 10 0 -2
BITMAP
30
20
40
40
40
40
40
80
80
C0
ENDCHAR

STARTCHAR backslash
ENCODING 92
SWIDTH 458 0
DWIDTH 5 0
BBX 3 10 2 -2
BITMAP
80
80
80
40
40
40
40
40
20
20
ENDCHAR

STARTCHAR bracketright
ENCODING 93
SWIDTH 310 0
DWIDTH 3 0
BBX 4 10 0 -2
BITMAP
30
20
20
20
20
20
20
40
40
C0
ENDCHAR

STARTCHAR asciicircum
ENCODING 94
SWIDTH 608 0
DWIDTH 6 0
BBX 6 8 0 1
BITMAP
10
10
18
28
28
48
44
84
ENDCHAR

STARTCHAR underscore
ENCODING 95
SWIDTH 500 0
DWIDTH 5 0
BBX 4 1 0 0
BITMAP
F0
ENDCHAR

STARTCHAR quoteleft
ENCODING 96
SWIDTH 265 0
DWIDTH 3 0
BBX 2 3 2 5
BITMAP
40
80
80
ENDCHAR

STARTCHAR a
ENCODING 97
SWIDTH 608 0
DWIDTH 6 0
BBX 5 5 1 0
BITMAP
38
48
98
B0
F8
ENDCHAR

STARTCHAR b
ENCODING 98
SWIDTH 596 0
DWIDTH 6 0
BBX 5 8 1 0
BITMAP
60
40
40
58
68
48
88
F0
ENDCHAR

STARTCHAR c
ENCODING 99
SWIDTH 487 0
DWIDTH 5 0
BBX 5 5 1 0
BITMAP
38
50
80
80
F0
ENDCHAR

STARTCHAR d
ENCODING 100
SWIDTH 608 0
DWIDTH 6 0
BBX 6 8 1 0
BITMAP
0C
04
08
38
48
98
B0
F8
ENDCHAR

STARTCHAR e
ENCODING 101
SWIDTH 518 0
DWIDTH 5 0
BBX 4 5 1 0
BITMAP
70
90
E0
90
F0
ENDCHAR

STARTCHAR f
ENCODING 102
SWIDTH 380 0
DWIDTH 4 0
BBX 5 10 1 -2
BITMAP
18
28
60
70
40
40
40
40
80
80
ENDCHAR

STARTCHAR g
ENCODING 103
SWIDTH 602 0
DWIDTH 6 0
BBX 6 7 0 -2
BITMAP
3C
48
48
98
68
90
F0
ENDCHAR

STARTCHAR h
ENCODING 104
SWIDTH 631 0
DWIDTH 6 0
BBX 5 8 1 0
BITMAP
60
40
40
58
68
48
88
98
ENDCHAR

STARTCHAR i
ENCODING 105
SWIDTH 289 0
DWIDTH 3 0
BBX 2 8 1 0
BITMAP
40
00
00
C0
40
80
80
C0
ENDCHAR

STARTCHAR j
ENCODING 106
SWIDTH 343 0
DWIDTH 3 0
BBX 5 10 0 -2
BITMAP
08
00
00
18
10
10
10
10
A0
E0
ENDCHAR

STARTCHAR k
ENCODING 107
SWIDTH 560 0
DWIDTH 6 0
BBX 5 8 1 0
BITMAP
40
40
40
48
50
60
B0
98
ENDCHAR

STARTCHAR l
ENCODING 108
SWIDTH 289 0
DWIDTH 3 0
BBX 2 8 1 0
BITMAP
40
40
40
40
40
40
80
C0
ENDCHAR

STARTCHAR m
ENCODING 109
SWIDTH 944 0
DWIDTH 9 0
BBX 8 5 1 0
BITMAP
DB
6D
49
89
91
ENDCHAR

STARTCHAR n
ENCODING 110
SWIDTH 631 0
DWIDTH 6 0
BBX 5 5 1 0
BITMAP
D8
68
48
88
98
ENDCHAR

STARTCHAR o
ENCODING 111
SWIDTH 560 0
DWIDTH 6 0
BBX 5 5 1 0
BITMAP
38
48
88
90
E0
ENDCHAR

STARTCHAR p
ENCODING 112
SWIDTH 608 0
DWIDTH 6 0
BBX 6 7 1 -2
BITMAP
DC
64
48
48
70
80
80
ENDCHAR

STARTCHAR q
ENCODING 113
SWIDTH 599 0
DWIDTH 6 0
BBX 5 7 1 -2
BITMAP
38
48
90
B0
F0
10
10
ENDCHAR

STARTCHAR r
ENCODING 114
SWIDTH 470 0
DWIDTH 5 0
BBX 5 5 1 0
BITMAP
F8
60
40
80
80
ENDCHAR

STARTCHAR s
ENCODING 115
SWIDTH 440 0
DWIDTH 4 0
BBX 4 5 0 0
BITMAP
70
50
20
90
E0
ENDCHAR

STARTCHAR t
ENCODING 116
SWIDTH 355 0
DWIDTH 4 0
BBX 3 6 1 0
BITMAP
40
E0
40
80
80
C0
ENDCHAR

STARTCHAR u
ENCODING 117
SWIDTH 630 0
DWIDTH 6 0
BBX 5 5 1 0
BITMAP
D8
48
98
B0
F8
ENDCHAR

STARTCHAR v
ENCODING 118
SWIDTH 558 0
DWIDTH 6 0
BBX 6 5 1 0
BITMAP
CC
48
38
30
20
ENDCHAR

STARTCHAR w
ENCODING 119
SWIDTH 805 0
DWIDTH 8 0
BBX 8 5 1 0
BITMAP
C9
59
5A
2C
68
ENDCHAR

STARTCHAR x
ENCODING 120
SWIDTH 510 0
DWIDTH 5 0
BBX 5 5 0 0
BITMAP
C8
38
20
50
98
ENDCHAR

STARTCHAR y
ENCODING 121
SWIDTH 558 0
DWIDTH 6 0
BBX 7 7 1 -2
BITMAP
32
12
14
1C
18
30
E0
ENDCHAR

STARTCHAR z
ENCODING 122
SWIDTH 536 0
DWIDTH 5 0
BBX 5 5 1 0
BITMAP
78
50
20
48
F0
ENDCHAR

STARTCHAR braceleft
ENCODING 123
SWIDTH 337 0
DWIDTH 3 0
BBX 3 10 1 -2
BITMAP
20
40
40
40
C0
80
C0
80
80
40
ENDCHAR

STARTCHAR bar
ENCODING 124
SWIDTH 241 0
DWIDTH 2 0
BBX 2 10 1 -2
BITMAP
40
40
40
40
40
40
40
80
80
80
ENDCHAR

STARTCHAR braceright
ENCODING 125
SWIDTH 337 0
DWIDTH 3 0
BBX 3 10 1 -2
BITMAP
20
20
20
20
20
40
40
40
40
80
ENDCHAR

STARTCHAR asciitilde
ENCODING 126
SWIDTH 608 0
DWIDTH 6 0
BBX 6 2 1 2
BITMAP
E4
9C
ENDCHAR

STARTCHAR exclamdown
ENCODING 161
SWIDTH 265 0
DWIDTH 3 0
BBX 2 7 0 -2
BITMAP
40
00
40
80
80
80
80
ENDCHAR

STARTCHAR cent
ENCODING 162
SWIDTH 608 0
DWIDTH 6 0
BBX 5 8 2 0
BITMAP
10
38
60
A0
A0
A0
F0
40
ENDCHAR

STARTCHAR sterling
ENCODING 163
SWIDTH 608 0
DWIDTH 6 0
BBX 6 8 1 0
BITMAP
1C
28
20
20
70
60
40
F0
ENDCHAR

STARTCHAR currency
ENCODING 164
SWIDTH 608 0
DWIDTH 6 0
BBX 7 5 0 1
BITMAP
BA
44
44
7C
82
ENDCHAR

STARTCHAR yen
ENCODING 165
SWIDTH 608 0
DWIDTH 6 0
BBX 7 8 1 0
BITMAP
E6
44
48
F8
20
F8
20
C0
ENDCHAR

STARTCHAR brokenbar
ENCODING 166
SWIDTH 241 0
DWIDTH 2 0
BBX 2 10 1 -2
BITMAP
40
40
40
40
40
40
80
80
80
80
ENDCHAR

STARTCHAR section
ENCODING 167
SWIDTH 608 0
DWIDTH 6 0
BBX 5 10 1 -2
BITMAP
38
48
40
60
58
68
30
10
98
F0
ENDCHAR

STARTCHAR dieresis
ENCODING 168
SWIDTH 560 0
DWIDTH 6 0
BBX 3 1 3 7
BITMAP
A0
ENDCHAR

STARTCHAR copyright
ENCODING 169
SWIDTH 843 0
DWIDTH 8 0
BBX 8 8 1 0
BITMAP
3C
42
9D
A5
A1
A1
7A
3C
ENDCHAR

STARTCHAR ordfeminine
ENCODING 170
SWIDTH 458 0
DWIDTH 5 0
BBX 4 5 1 3
BITMAP
70
90
A0
A0
F0
ENDCHAR

STARTCHAR guillemotleft
ENCODING 171
SWIDTH 525 0
DWIDTH 5 0
BBX 5 5 1 0
BITMAP
28
50
A0
A0
50
ENDCHAR

STARTCHAR logicalnot
ENCODING 172
SWIDTH 608 0
DWIDTH 6 0
BBX 6 3 1 2
BITMAP
FC
04
04
ENDCHAR

STARTCHAR hyphen
ENCODING 173
SWIDTH 313 0
DWIDTH 3 0
BBX 2 1 1 3
BITMAP
C0
ENDCHAR

STARTCHAR registered
ENCODING 174
SWIDTH 608 0
DWIDTH 6 0
BBX 4 5 2 3
BITMAP
E0
90
E0
A0
90
ENDCHAR

STARTCHAR macron
ENCODING 175
SWIDTH 560 0
DWIDTH 6 0
BBX 3 1 3 6
BITMAP
E0
ENDCHAR

STARTCHAR degree
ENCODING 176
SWIDTH 277 0
DWIDTH 3 0
BBX 2 3 2 5
BITMAP
C0
C0
C0
ENDCHAR

STARTCHAR plusminus
ENCODING 177
SWIDTH 608 0
DWIDTH 6 0
BBX 7 6 0 0
BITMAP
18
10
7E
10
10
FC
ENDCHAR

STARTCHAR twosuperior
ENCODING 178
SWIDTH 365 0
DWIDTH 4 0
BBX 3 4 -5 4
BITMAP
C0
20
40
E0
ENDCHAR

STARTCHAR threesuperior
ENCODING 179
SWIDTH 365 0
DWIDTH 4 0
BBX 3 4 -6 4
BITMAP
E0
60
20
C0
ENDCHAR

STARTCHAR acute
ENCODING 180
SWIDTH 560 0
DWIDTH 6 0
BBX 1 1 4 7
BITMAP
80
ENDCHAR

STARTCHAR mu
ENCODING 181
SWIDTH 663 0
DWIDTH 7 0
BBX 6 7 1 -2
BITMAP
CC
48
48
58
6C
80
80
ENDCHAR

STARTCHAR paragraph
ENCODING 182
SWIDTH 608 0
DWIDTH 6 0
BBX 4 10 2 -2
BITMAP
F0
F0
F0
50
50
50
50
50
50
50
ENDCHAR

STARTCHAR periodcentered
ENCODING 183
SWIDTH 608 0
DWIDTH 6 0
BBX 1 1 3 2
BITMAP
80
ENDCHAR

STARTCHAR cedilla
ENCODING 184
SWIDTH 560 0
DWIDTH 6 0
BBX 2 2 2 -2
BITMAP
40
C0
ENDCHAR

STARTCHAR onesuperior
ENCODING 185
SWIDTH 365 0
DWIDTH 4 0
BBX 2 4 -6 4
BITMAP
40
40
40
C0
ENDCHAR

STARTCHAR ordmasculine
ENCODING 186
SWIDTH 458 0
DWIDTH 5 0
BBX 4 5 1 3
BITMAP
70
90
90
A0
C0
ENDCHAR

STARTCHAR guillemotright
ENCODING 187
SWIDTH 525 0
DWIDTH 5 0
BBX 5 5 1 0
BITMAP
50
50
78
50
A0
ENDCHAR

STARTCHAR onequarter
ENCODING 188
SWIDTH 766 0
DWIDTH 8 0
BBX 8 8 1 0
BITMAP
41
42
44
CA
16
2A
5F
82
ENDCHAR

STARTCHAR onehalf
ENCODING 189
SWIDTH 766 0
DWIDTH 8 0
BBX 8 8 1 0
BITMAP
41
42
44
CE
19
22
44
8F
ENDCHAR

STARTCHAR threequarters
ENCODING 190
SWIDTH 766 0
DWIDTH 8 0
BBX 9 8 2 0
BITMAP
6080
6100
2200
C500
0B00
1500
2780
4100
ENDCHAR

STARTCHAR questiondown
ENCODING 191
SWIDTH 471 0
DWIDTH 5 0
BBX 4 7 0 -2
BITMAP
10
00
30
60
C0
90
F0
ENDCHAR

STARTCHAR Agrave
ENCODING 192
SWIDTH 747 0
DWIDTH 7 0
BBX 7 9 0 0
BITMAP
08
0C
0C
14
14
24
7C
42
C6
ENDCHAR

STARTCHAR Aacute
ENCODING 193
SWIDTH 747 0
DWIDTH 7 0
BBX 7 9 0 0
BITMAP
04
0C
0C
14
14
24
7C
42
C6
ENDCHAR

STARTCHAR Acircumflex
ENCODING 194
SWIDTH 747 0
DWIDTH 7 0
BBX 7 10 0 0
BITMAP
06
0A
0C
0C
14
14
24
7C
42
C6
ENDCHAR

STARTCHAR Atilde
ENCODING 195
SWIDTH 747 0
DWIDTH 7 0
BBX 7 9 0 0
BITMAP
0E
0C
0C
14
14
24
7C
42
C6
ENDCHAR

STARTCHAR Adieresis
ENCODING 196
SWIDTH 747 0
DWIDTH 7 0
BBX 7 9 0 0
BITMAP
0A
0C
0C
14
14
24
7C
42
C6
ENDCHAR

STARTCHAR Aring
ENCODING 197
SWIDTH 747 0
DWIDTH 7 0
BBX 7 10 0 0
BITMAP
0E
0A
0C
0C
14
14
24
7C
42
C6
ENDCHAR

STARTCHAR AE
ENCODING 198
SWIDTH 907 0
DWIDTH 9 0
BBX 10 8 0 0
BITMAP
07C0
0E40
0C80
1780
3C80
4400
4480
CF80
ENDCHAR

STARTCHAR Ccedilla
ENCODING 199
SWIDTH 714 0
DWIDTH 7 0
BBX 7 10 1 -2
BITMAP
1E
64
40
80
80
80
C0
78
20
60
ENDCHAR

STARTCHAR Egrave
ENCODING 200
SWIDTH 569 0
DWIDTH 6 0
BBX 6 9 0 0
BITMAP
10
7C
24
28
38
68
40
48
F8
ENDCHAR

STARTCHAR Eacute
ENCODING 201
SWIDTH 569 0
DWIDTH 6 0
BBX 6 9 0 0
BITMAP
08
7C
24
28
38
68
40
48
F8
ENDCHAR

STARTCHAR Ecircumflex
ENCODING 202
SWIDTH 569 0
DWIDTH 6 0
BBX 6 10 0 0
BITMAP
0C
14
7C
24
28
38
68
40
48
F8
ENDCHAR

STARTCHAR Edieresis
ENCODING 203
SWIDTH 569 0
DWIDTH 6 0
BBX 6 9 0 0
BITMAP
14
7C
24
28
38
68
40
48
F8
ENDCHAR

STARTCHAR Igrave
ENCODING 204
SWIDTH 325 0
DWIDTH 3 0
BBX 4 9 0 0
BITMAP
20
70
20
20
20
20
40
40
E0
ENDCHAR

STARTCHAR Iacute
ENCODING 205
SWIDTH 325 0
DWIDTH 3 0
BBX 4 9 0 0
BITMAP
20
70
20
20
20
20
40
40
E0
ENDCHAR

STARTCHAR Icircumflex
ENCODING 206
SWIDTH 325 0
DWIDTH 3 0
BBX 4 10 0 0
BITMAP
30
50
70
20
20
20
20
40
40
E0
ENDCHAR

STARTCHAR Idieresis
ENCODING 207
SWIDTH 325 0
DWIDTH 3 0
BBX 5 9 0 0
BITMAP
28
70
20
20
20
20
40
40
E0
ENDCHAR

STARTCHAR Eth
ENCODING 208
SWIDTH 770 0
DWIDTH 8 0
BBX 8 8 0 0
BITMAP
7E
23
21
21
73
42
46
F8
ENDCHAR

STARTCHAR Ntilde
ENCODING 209
SWIDTH 762 0
DWIDTH 8 0
BBX 9 9 0 0
BITMAP
0E00
6380
3100
5200
4A00
4A00
4600
4600
C400
ENDCHAR

STARTCHAR Ograve
ENCODING 210
SWIDTH 783 0
DWIDTH 8 0
BBX 7 9 1 0
BITMAP
10
1C
66
42
82
82
84
CC
70
ENDCHAR

STARTCHAR Oacute
ENCODING 211
SWIDTH 783 0
DWIDTH 8 0
BBX 7 9 1 0
BITMAP
08
1C
66
42
82
82
84
CC
70
ENDCHAR

STARTCHAR Ocircumflex
ENCODING 212
SWIDTH 783 0
DWIDTH 8 0
BBX 7 10 1 0
BITMAP
0C
14
1C
66
42
82
82
84
CC
70
ENDCHAR

STARTCHAR Otilde
ENCODING 213
SWIDTH 783 0
DWIDTH 8 0
BBX 7 9 1 0
BITMAP
1C
1C
66
42
82
82
84
CC
70
ENDCHAR

STARTCHAR Odieresis
ENCODING 214
SWIDTH 783 0
DWIDTH 8 0
BBX 7 9 1 0
BITMAP
14
1C
66
42
82
82
84
CC
70
ENDCHAR

STARTCHAR multiply
ENCODING 215
SWIDTH 608 0
DWIDTH 6 0
BBX 7 6 0 0
BITMAP
42
24
28
30
68
84
ENDCHAR

STARTCHAR Oslash
ENCODING 216
SWIDTH 783 0
DWIDTH 8 0
BBX 9 8 1 0
BITMAP
1D80
6600
4600
8A00
9200
A400
CC00
F000
ENDCHAR

STARTCHAR Ugrave
ENCODING 217
SWIDTH 727 0
DWIDTH 7 0
BBX 7 9 1 0
BITMAP
10
EE
44
44
84
84
84
88
70
ENDCHAR

STARTCHAR Uacute
ENCODING 218
SWIDTH 727 0
DWIDTH 7 0
BBX 7 9 1 0
BITMAP
10
E6
44
44
84
84
84
88
70
ENDCHAR

STARTCHAR Ucircumflex
ENCODING 219
SWIDTH 727 0
DWIDTH 7 0
BBX 7 10 1 0
BITMAP
18
28
E6
44
44
84
84
84
88
70
ENDCHAR

STARTCHAR Udieresis
ENCODING 220
SWIDTH 727 0
DWIDTH 7 0
BBX 7 9 1 0
BITMAP
28
E6
44
44
84
84
84
88
70
ENDCHAR

STARTCHAR Yacute
ENCODING 221
SWIDTH 663 0
DWIDTH 7 0
BBX 7 9 1 0
BITMAP
10
E6
44
48
30
20
20
20
E0
ENDCHAR

STARTCHAR Thorn
ENCODING 222
SWIDTH 579 0
DWIDTH 6 0
BBX 6 8 0 0
BITMAP
70
20
3C
24
64
4C
78
E0
ENDCHAR

STARTCHAR germandbls
ENCODING 223
SWIDTH 603 0
DWIDTH 6 0
BBX 5 10 1 -2
BITMAP
30
48
58
60
50
48
48
B8
80
80
ENDCHAR

STARTCHAR agrave
ENCODING 224
SWIDTH 608 0
DWIDTH 6 0
BBX 5 6 1 0
BITMAP
10
38
48
98
B0
F8
ENDCHAR

STARTCHAR aacute
ENCODING 225
SWIDTH 608 0
DWIDTH 6 0
BBX 5 6 1 0
BITMAP
10
38
48
98
B0
F8
ENDCHAR

STARTCHAR acircumflex
ENCODING 226
SWIDTH 608 0
DWIDTH 6 0
BBX 5 7 1 0
BITMAP
18
28
38
48
98
B0
F8
ENDCHAR

STARTCHAR atilde
ENCODING 227
SWIDTH 608 0
DWIDTH 6 0
BBX 5 6 1 0
BITMAP
38
38
48
98
B0
F8
ENDCHAR

STARTCHAR adieresis
ENCODING 228
SWIDTH 608 0
DWIDTH 6 0
BBX 5 6 1 0
BITMAP
28
38
48
98
B0
F8
ENDCHAR

STARTCHAR aring
ENCODING 229
SWIDTH 608 0
DWIDTH 6 0
BBX 5 7 1 0
BITMAP
18
18
38
48
98
B0
F8
ENDCHAR

STARTCHAR ae
ENCODING 230
SWIDTH 881 0
DWIDTH 9 0
BBX 8 5 1 0
BITMAP
3F
49
9E
B9
EE
ENDCHAR

STARTCHAR ccedilla
ENCODING 231
SWIDTH 487 0
DWIDTH 5 0
BBX 5 7 1 -2
BITMAP
38
50
80
80
F0
40
C0
ENDCHAR

STARTCHAR egrave
ENCODING 232
SWIDTH 518 0
DWIDTH 5 0
BBX 4 6 1 0
BITMAP
20
70
90
E0
90
F0
ENDCHAR

STARTCHAR eacute
ENCODING 233
SWIDTH 518 0
DWIDTH 5 0
BBX 4 6 1 0
BITMAP
10
70
90
E0
90
F0
ENDCHAR

STARTCHAR ecircumflex
ENCODING 234
SWIDTH 518 0
DWIDTH 5 0
BBX 5 7 1 0
BITMAP
18
28
70
90
E0
90
F0
ENDCHAR

STARTCHAR edieresis
ENCODING 235
SWIDTH 518 0
DWIDTH 5 0
BBX 5 6 1 0
BITMAP
28
70
90
E0
90
F0
ENDCHAR

STARTCHAR igrave
ENCODING 236
SWIDTH 289 0
DWIDTH 3 0
BBX 3 6 1 0
BITMAP
40
E0
40
80
80
C0
ENDCHAR

STARTCHAR iacute
ENCODING 237
SWIDTH 289 0
DWIDTH 3 0
BBX 2 6 1 0
BITMAP
40
C0
40
80
80
C0
ENDCHAR

STARTCHAR icircumflex
ENCODING 238
SWIDTH 289 0
DWIDTH 3 0
BBX 3 7 1 0
BITMAP
40
A0
C0
40
80
80
C0
ENDCHAR

STARTCHAR idieresis
ENCODING 239
SWIDTH 289 0
DWIDTH 3 0
BBX 4 6 1 0
BITMAP
50
C0
40
80
80
C0
ENDCHAR

STARTCHAR eth
ENCODING 240
SWIDTH 562 0
DWIDTH 6 0
BBX 5 8 1 0
BITMAP
68
10
28
38
48
88
90
E0
ENDCHAR

STARTCHAR ntilde
ENCODING 241
SWIDTH 631 0
DWIDTH 6 0
BBX 5 6 1 0
BITMAP
38
D8
68
48
88
98
ENDCHAR

STARTCHAR ograve
ENCODING 242
SWIDTH 560 0
DWIDTH 6 0
BBX 5 6 1 0
BITMAP
20
38
48
88
90
E0
ENDCHAR

STARTCHAR oacute
ENCODING 243
SWIDTH 560 0
DWIDTH 6 0
BBX 5 6 1 0
BITMAP
10
38
48
88
90
E0
ENDCHAR

STARTCHAR ocircumflex
ENCODING 244
SWIDTH 560 0
DWIDTH 6 0
BBX 5 7 1 0
BITMAP
18
28
38
48
88
90
E0
ENDCHAR

STARTCHAR otilde
ENCODING 245
SWIDTH 560 0
DWIDTH 6 0
BBX 5 6 1 0
BITMAP
38
38
48
88
90
E0
ENDCHAR

STARTCHAR odieresis
ENCODING 246
SWIDTH 560 0
DWIDTH 6 0
BBX 5 6 1 0
BITMAP
28
38
48
88
90
E0
ENDCHAR

STARTCHAR divide
ENCODING 247
SWIDTH 608 0
DWIDTH 6 0
BBX 6 5 1 0
BITMAP
10
00
FC
00
20
ENDCHAR

STARTCHAR oslash
ENCODING 248
SWIDTH 560 0
DWIDTH 6 0
BBX 6 5 1 0
BITMAP
3C
58
A8
D0
E0
ENDCHAR

STARTCHAR ugrave
ENCODING 249
SWIDTH 630 0
DWIDTH 6 0
BBX 5 6 1 0
BITMAP
10
D8
48
98
B0
F8
ENDCHAR

STARTCHAR uacute
ENCODING 250
SWIDTH 630 0
DWIDTH 6 0
BBX 5 6 1 0
BITMAP
10
D8
48
98
B0
F8
ENDCHAR

STARTCHAR ucircumflex
ENCODING 251
SWIDTH 630 0
DWIDTH 6 0
BBX 5 7 1 0
BITMAP
18
28
D8
48
98
B0
F8
ENDCHAR

STARTCHAR udieresis
ENCODING 252
SWIDTH 630 0
DWIDTH 6 0
BBX 5 6 1 0
BITMAP
28
D8
48
98
B0
F8
ENDCHAR

STARTCHAR yacute
ENCODING 253
SWIDTH 558 0
DWIDTH 6 0
BBX 7 8 1 -2
BITMAP
04
32
12
14
1C
18
30
E0
ENDCHAR

STARTCHAR thorn
ENCODING 254
SWIDTH 608 0
DWIDTH 6 0
BBX 6 8 1 -2
BITMAP
60
5C
64
48
48
70
80
80
ENDCHAR

STARTCHAR ydieresis
ENCODING 255
SWIDTH 558 0
DWIDTH 6 0
BBX 7 8 1 -2
BITMAP
0A
32
12
14
1C
18
30
E0
ENDCHAR
ENDFONT
